# xmcd
#
# Track frame offsets: 
#        150
#        13451
#        26743
#        50424
#        58505
#        76478
#        93835
#        104566
#        126980
#        140175
#
# Disc length: 2059 seconds
#
# Revision: 0
# Processed by: cddbd v1.5.2PL0 Copyright (c) Steve Scherf et al.
# Submitted via: ExactAudioCopyFreeDBPlugin 1.0
#
DISCID=8f08090a
DTITLE=Various Artist - The Real Gospel: Keeping The Legacy Alive
DYEAR=2005
DGENRE=Gospel
TTITLE0=Aretha Franklin - Yield Not to Temptation
TTITLE1=Mighty Clouds of Joy - Jonah
TTITLE2=Jesse Dixon - Swing Low
TTITLE3=Shirley Caesar - The Storm Is Passing Over
TTITLE4=Albertina Walker and The Caravans - How I Got Over
TTITLE5=Rev. Milton Brunson - Yes, Jesus Loves Me
TTITLE6=Jesse Dixon - Down Here Lord
TTITLE7=Swan Silvertones - Amazing Grace
TTITLE8=Rev. James Cleveland - Meeting Tonight
TTITLE9=Tyler Trio - Walk On By Faith
EXTD=
EXTT0=
EXTT1=
EXTT2=
EXTT3=
EXTT4=
EXTT5=
EXTT6=
EXTT7=
EXTT8=
EXTT9=
PLAYORDER=
